<svg xmlns="http://www.w3.org/2000/svg" xmlns:xlink="http://www.w3.org/1999/xlink" width="984" height="334pt" viewBox="0 0 738 334"><g id="graph0" class="graph" transform="scale(1 1) rotate(0) translate(4 330)"><title>%3</title><polygon fill="#fff" stroke="#fff" points="-4 5 -4 -330 735 -330 735 5 -4 5"/><g id="node1" class="node"><title>gateway</title><path fill="#87ceeb" stroke="#000" d="M590,-326C590,-326 408,-326 408,-326 402,-326 396,-320 396,-314 396,-314 396,-300 396,-300 396,-294 402,-288 408,-288 408,-288 590,-288 590,-288 596,-288 602,-294 602,-300 602,-300 602,-314 602,-314 602,-320 596,-326 590,-326"/><text x="499" y="-310.8" font-family="Times,serif" font-size="14" text-anchor="middle">Gateway: Raisecom MSG2200-T4</text><text x="499" y="-295.8" font-family="Times,serif" font-size="14" text-anchor="middle">provided by Shanghai Telecom</text></g><g id="node2" class="node"><title>router</title><path fill="#f0f8ff" stroke="#000" d="M554,-252C554,-252 444,-252 444,-252 438,-252 432,-246 432,-240 432,-240 432,-228 432,-228 432,-222 438,-216 444,-216 444,-216 554,-216 554,-216 560,-216 566,-222 566,-228 566,-228 566,-240 566,-240 566,-246 560,-252 554,-252"/><text x="499" y="-230.3" font-family="Times,serif" font-size="14" text-anchor="middle">Router: H3C ER3260</text></g><g id="edge1" class="edge"><title>gateway-&gt;router</title><path fill="none" stroke="#000" stroke-dasharray="5 2" d="M499,-287.716C499,-279.973 499,-270.789 499,-262.274"/><polygon fill="#000" stroke="#000" points="502.5 -262.003 499 -252.003 495.5 -262.003 502.5 -262.003"/></g><g id="node3" class="node"><title>switch_1</title><path fill="bisque" stroke="#000" d="M407.25,-180C407.25,-180 348.75,-180 348.75,-180 342.75,-180 336.75,-174 336.75,-168 336.75,-168 336.75,-156 336.75,-156 336.75,-150 342.75,-144 348.75,-144 348.75,-144 407.25,-144 407.25,-144 413.25,-144 419.25,-150 419.25,-156 419.25,-156 419.25,-168 419.25,-168 419.25,-174 413.25,-180 407.25,-180"/><text x="378" y="-158.3" font-family="Times,serif" font-size="14" text-anchor="middle">H3C Switch</text></g><g id="edge2" class="edge"><title>router-&gt;switch_1</title><path fill="none" stroke="#000" stroke-dasharray="5 2" d="M469.4,-215.876C453.433,-206.639 433.54,-195.131 416.394,-185.212"/><polygon fill="#000" stroke="#000" points="418.122 -182.168 407.714 -180.19 414.617 -188.227 418.122 -182.168"/></g><g id="node4" class="node"><title>switch_2</title><path fill="bisque" stroke="#000" d="M528.25,-180C528.25,-180 469.75,-180 469.75,-180 463.75,-180 457.75,-174 457.75,-168 457.75,-168 457.75,-156 457.75,-156 457.75,-150 463.75,-144 469.75,-144 469.75,-144 528.25,-144 528.25,-144 534.25,-144 540.25,-150 540.25,-156 540.25,-156 540.25,-168 540.25,-168 540.25,-174 534.25,-180 528.25,-180"/><text x="499" y="-158.3" font-family="Times,serif" font-size="14" text-anchor="middle">H3C Switch</text></g><g id="edge3" class="edge"><title>router-&gt;switch_2</title><path fill="none" stroke="#000" stroke-dasharray="5 2" d="M499,-215.697C499,-207.983 499,-198.712 499,-190.112"/><polygon fill="#000" stroke="#000" points="502.5 -190.104 499 -180.104 495.5 -190.104 502.5 -190.104"/></g><g id="node5" class="node"><title>switch_3</title><path fill="bisque" stroke="#000" d="M660.25,-180C660.25,-180 601.75,-180 601.75,-180 595.75,-180 589.75,-174 589.75,-168 589.75,-168 589.75,-156 589.75,-156 589.75,-150 595.75,-144 601.75,-144 601.75,-144 660.25,-144 660.25,-144 666.25,-144 672.25,-150 672.25,-156 672.25,-156 672.25,-168 672.25,-168 672.25,-174 666.25,-180 660.25,-180"/><text x="631" y="-158.3" font-family="Times,serif" font-size="14" text-anchor="middle">H3C Switch</text></g><g id="edge4" class="edge"><title>router-&gt;switch_3</title><path fill="none" stroke="#000" stroke-dasharray="5 2" d="M531.291,-215.876C548.869,-206.554 570.809,-194.919 589.629,-184.939"/><polygon fill="#000" stroke="#000" points="591.39 -187.967 598.585 -180.19 588.111 -181.783 591.39 -187.967"/></g><g id="node6" class="node"><title>uap_1</title><path fill="#7fffd4" stroke="#000" d="M213.25,-108C213.25,-108 104.75,-108 104.75,-108 98.75,-108 92.75,-102 92.75,-96 92.75,-96 92.75,-84 92.75,-84 92.75,-78 98.75,-72 104.75,-72 104.75,-72 213.25,-72 213.25,-72 219.25,-72 225.25,-78 225.25,-84 225.25,-84 225.25,-96 225.25,-96 225.25,-102 219.25,-108 213.25,-108"/><text x="159" y="-86.3" font-family="Times,serif" font-size="14" text-anchor="middle">UBNT UAP AC-Lite</text></g><g id="edge5" class="edge"><title>switch_1-&gt;uap_1</title><path fill="none" stroke="#000" stroke-dasharray="5 2" d="M336.55,-147.751C304.222,-137.418 258.782,-122.894 221.965,-111.126"/><polygon fill="#000" stroke="#000" points="222.908 -107.753 212.317 -108.042 220.777 -114.421 222.908 -107.753"/></g><g id="node7" class="node"><title>uap_2</title><path fill="#7fffd4" stroke="#000" d="M432.25,-108C432.25,-108 323.75,-108 323.75,-108 317.75,-108 311.75,-102 311.75,-96 311.75,-96 311.75,-84 311.75,-84 311.75,-78 317.75,-72 323.75,-72 323.75,-72 432.25,-72 432.25,-72 438.25,-72 444.25,-78 444.25,-84 444.25,-84 444.25,-96 444.25,-96 444.25,-102 438.25,-108 432.25,-108"/><text x="378" y="-86.3" font-family="Times,serif" font-size="14" text-anchor="middle">UBNT UAP AC-Lite</text></g><g id="edge6" class="edge"><title>switch_1-&gt;uap_2</title><path fill="none" stroke="#000" stroke-dasharray="5 2" d="M378,-143.697C378,-135.983 378,-126.712 378,-118.112"/><polygon fill="#000" stroke="#000" points="381.5 -118.104 378 -108.104 374.5 -118.104 381.5 -118.104"/></g><g id="node8" class="node"><title>pc_1</title><path fill="#add8e6" stroke="#000" d="M502,-36C502,-36 472,-36 472,-36 466,-36 460,-30 460,-24 460,-24 460,-12 460,-12 460,-6 466,-0 472,-0 472,-0 502,-0 502,-0 508,-0 514,-6 514,-12 514,-12 514,-24 514,-24 514,-30 508,-36 502,-36"/><text x="487" y="-14.3" font-family="Times,serif" font-size="14" text-anchor="middle">PC</text></g><g id="edge11" class="edge"><title>switch_2-&gt;pc_1</title><path fill="none" stroke="#000" stroke-dasharray="5 2" d="M497.553,-143.871C495.507,-119.67 491.75,-75.2108 489.315,-46.3932"/><polygon fill="#000" stroke="#000" points="492.782 -45.859 488.453 -36.189 485.807 -46.449 492.782 -45.859"/></g><g id="node9" class="node"><title>pc_2</title><path fill="#add8e6" stroke="#000" d="M574,-36C574,-36 544,-36 544,-36 538,-36 532,-30 532,-24 532,-24 532,-12 532,-12 532,-6 538,-0 544,-0 544,-0 574,-0 574,-0 580,-0 586,-6 586,-12 586,-12 586,-24 586,-24 586,-30 580,-36 574,-36"/><text x="559" y="-14.3" font-family="Times,serif" font-size="14" text-anchor="middle">PC</text></g><g id="edge12" class="edge"><title>switch_2-&gt;pc_2</title><path fill="none" stroke="#000" stroke-dasharray="5 2" d="M506.237,-143.871C516.553,-119.457 535.581,-74.4258 547.746,-45.6351"/><polygon fill="#000" stroke="#000" points="551.069 -46.763 551.737 -36.189 544.621 -44.038 551.069 -46.763"/></g><g id="node10" class="node"><title>pc_3</title><path fill="#add8e6" stroke="#000" d="M646,-36C646,-36 616,-36 616,-36 610,-36 604,-30 604,-24 604,-24 604,-12 604,-12 604,-6 610,-0 616,-0 616,-0 646,-0 646,-0 652,-0 658,-6 658,-12 658,-12 658,-24 658,-24 658,-30 652,-36 646,-36"/><text x="631" y="-14.3" font-family="Times,serif" font-size="14" text-anchor="middle">PC</text></g><g id="edge13" class="edge"><title>switch_3-&gt;pc_3</title><path fill="none" stroke="#000" stroke-dasharray="5 2" d="M631,-143.871C631,-119.67 631,-75.2108 631,-46.3932"/><polygon fill="#000" stroke="#000" points="634.5 -46.189 631 -36.189 627.5 -46.189 634.5 -46.189"/></g><g id="node11" class="node"><title>pc_4</title><path fill="#add8e6" stroke="#000" d="M718,-36C718,-36 688,-36 688,-36 682,-36 676,-30 676,-24 676,-24 676,-12 676,-12 676,-6 682,-0 688,-0 688,-0 718,-0 718,-0 724,-0 730,-6 730,-12 730,-12 730,-24 730,-24 730,-30 724,-36 718,-36"/><text x="703" y="-14.3" font-family="Times,serif" font-size="14" text-anchor="middle">PC</text></g><g id="edge14" class="edge"><title>switch_3-&gt;pc_4</title><path fill="none" stroke="#000" stroke-dasharray="5 2" d="M639.685,-143.871C652.118,-119.35 675.096,-74.0321 689.686,-45.2589"/><polygon fill="#000" stroke="#000" points="692.884 -46.691 694.284 -36.189 686.64 -43.526 692.884 -46.691"/></g><g id="node12" class="node"><title>mobile_phone_1</title><path fill="beige" stroke="#000" d="M82,-36C82,-36 12,-36 12,-36 6,-36 -7.10543e-15,-30 -7.10543e-15,-24 -7.10543e-15,-24 -7.10543e-15,-12 -7.10543e-15,-12 -7.10543e-15,-6 6,-0 12,-0 12,-0 82,-0 82,-0 88,-0 94,-6 94,-12 94,-12 94,-24 94,-24 94,-30 88,-36 82,-36"/><text x="47" y="-14.3" font-family="Times,serif" font-size="14" text-anchor="middle">Mobile Phone</text></g><g id="edge7" class="edge"><title>uap_1-&gt;mobile_phone_1</title><path fill="none" stroke="#000" stroke-dasharray="5 2" d="M131.602,-71.8761C117.093,-62.8083 99.0837,-51.5523 83.4147,-41.7592"/><polygon fill="#000" stroke="#000" points="84.839 -38.522 74.504 -36.19 81.129 -44.458 84.839 -38.522"/></g><g id="node13" class="node"><title>mobile_phone_2</title><path fill="beige" stroke="#000" d="M194,-36C194,-36 124,-36 124,-36 118,-36 112,-30 112,-24 112,-24 112,-12 112,-12 112,-6 118,-0 124,-0 124,-0 194,-0 194,-0 200,-0 206,-6 206,-12 206,-12 206,-24 206,-24 206,-30 200,-36 194,-36"/><text x="159" y="-14.3" font-family="Times,serif" font-size="14" text-anchor="middle">Mobile Phone</text></g><g id="edge8" class="edge"><title>uap_1-&gt;mobile_phone_2</title><path fill="none" stroke="#000" stroke-dasharray="5 2" d="M159,-71.6966C159,-63.9827 159,-54.7125 159,-46.1124"/><polygon fill="#000" stroke="#000" points="162.5 -46.104 159 -36.104 155.5 -46.104 162.5 -46.104"/></g><g id="node14" class="node"><title>mobile_phone_3</title><path fill="beige" stroke="#000" d="M306,-36C306,-36 236,-36 236,-36 230,-36 224,-30 224,-24 224,-24 224,-12 224,-12 224,-6 230,-0 236,-0 236,-0 306,-0 306,-0 312,-0 318,-6 318,-12 318,-12 318,-24 318,-24 318,-30 312,-36 306,-36"/><text x="271" y="-14.3" font-family="Times,serif" font-size="14" text-anchor="middle">Mobile Phone</text></g><g id="edge9" class="edge"><title>uap_2-&gt;mobile_phone_3</title><path fill="none" stroke="#000" stroke-dasharray="5 2" d="M351.825,-71.8761C337.964,-62.8083 320.759,-51.5523 305.789,-41.7592"/><polygon fill="#000" stroke="#000" points="307.56 -38.736 297.276 -36.19 303.728 -44.593 307.56 -38.736"/></g><g id="node15" class="node"><title>wireless_printer</title><path fill="beige" stroke="#000" d="M429.25,-36C429.25,-36 348.75,-36 348.75,-36 342.75,-36 336.75,-30 336.75,-24 336.75,-24 336.75,-12 336.75,-12 336.75,-6 342.75,-0 348.75,-0 348.75,-0 429.25,-0 429.25,-0 435.25,-0 441.25,-6 441.25,-12 441.25,-12 441.25,-24 441.25,-24 441.25,-30 435.25,-36 429.25,-36"/><text x="389" y="-14.3" font-family="Times,serif" font-size="14" text-anchor="middle">Wireless Printer</text></g><g id="edge10" class="edge"><title>uap_2-&gt;wireless_printer</title><path fill="none" stroke="#000" stroke-dasharray="5 2" d="M380.719,-71.6966C381.931,-63.9827 383.388,-54.7125 384.739,-46.1124"/><polygon fill="#000" stroke="#000" points="388.217 -46.526 386.312 -36.104 381.302 -45.44 388.217 -46.526"/></g></g></svg>